<svg width="157" height="247" viewBox="0 0 157 247" fill="none" xmlns="http://www.w3.org/2000/svg">
<g clip-path="url(#clip0_82_434)">
<path d="M51.05 166.11C51.05 166.11 75.36 169.42 84.75 172.19C84.75 172.19 93.59 177.16 96.35 169.43C96.35 169.43 102.43 153.96 60.44 150.65C60.44 150.65 49.39 150.1 47.18 157.83C47.18 157.83 46.08 165.56 51.05 166.12V166.11Z" fill="#101016"/>
<path d="M94.1401 108.65C94.1401 108.65 95.8001 100.92 79.2201 101.47C79.2201 101.47 50.4901 105.89 46.0701 105.89C46.0701 105.89 35.5701 108.1 36.6801 114.73C36.6801 114.73 36.1301 124.12 51.6001 123.02C51.6001 123.02 80.3301 119.15 85.8501 119.15C85.8501 119.15 95.7901 116.94 94.1401 108.65Z" fill="#101016"/>
<path d="M92.4801 62.8C92.4801 62.8 90.2701 57.28 80.8801 58.38C80.8801 58.38 42.7601 66.11 33.9201 69.43C33.9201 69.43 25.0801 73.85 25.0801 82.14C25.0801 82.14 25.6301 92.08 39.4401 87.11C39.4401 87.11 81.4201 72.75 88.0501 72.19C88.0501 72.19 94.1301 69.43 92.4701 62.8H92.4801Z" fill="#101016"/>
<path d="M125.08 81.77C125.08 81.77 124.71 79.56 127.65 75.88C127.65 75.88 137.59 66.67 136.13 58.2C136.12 58.2 126.18 0.370041 91.19 4.09759e-05C91.19 4.09759e-05 46.17 -1.41996 3.64001 36.55C2.99001 37.13 2.34001 37.72 1.70001 38.31C1.70001 38.31 1.10001 37.92 0.0100098 37.24C0.41001 39.68 0.77001 42.27 1.06001 45.1C1.45001 48.96 1.92001 52.81 2.42001 56.65C5.44001 56.58 8.83001 55.5 12.03 52.31C12.03 52.31 40.39 30.21 56.6 23.22C56.6 23.22 84.58 12.17 94.53 17.7C94.53 17.7 111.47 23.96 119.21 53.79C119.21 53.79 120.31 60.05 116.63 63C116.63 63 104.48 73.68 105.22 80.68C105.22 80.68 103.37 88.78 118.84 99.09C118.84 99.09 130.63 108.3 133.95 113.08C133.95 113.08 144.63 131.13 135.05 134.81C135.05 134.81 119.95 141.81 117 144.02C117 144.02 109.64 149.54 114.79 157.65C114.79 157.65 137.62 192.64 118.48 218.05C118.48 218.05 97.12 237.94 79.44 225.78C79.44 225.78 69.12 220.25 63.6 216.57C63.6 216.57 45.33 204.15 33.9 210.61C33.96 210.77 34.02 210.94 34.08 211.1C34.08 213.1 33.08 216.1 33.08 218.1C35.09 222.13 37.55 225.7 38.04 230.04C38.06 229.74 38.08 229.43 38.08 229.1C38.08 229.42 38.06 229.73 38.04 230.04C38.04 230.06 38.04 230.08 38.04 230.1C38.21 229.89 38.38 229.67 38.55 229.46C38.55 229.46 40.03 221.36 64.33 238.3C64.33 238.3 104.84 261.13 130.25 230.2C130.25 230.2 157.87 195.21 135.04 156.17C135.04 156.17 156.39 144.75 156.39 132.6C156.39 132.6 158.6 100.56 125.09 81.77H125.08Z" fill="#101016"/>
</g>
<defs>
<clipPath id="clip0_82_434">
<rect width="156.4" height="246.41" fill="white"/>
</clipPath>
</defs>
</svg>
