<svg width="204" height="96" viewBox="0 0 204 96" fill="none" xmlns="http://www.w3.org/2000/svg">
<g clip-path="url(#clip0_82_429)">
<path d="M139.71 31.32C139.71 31.32 137.5 50.66 140.81 52.86C140.81 52.86 150.75 58.38 152.41 47.89V32.42C152.41 32.42 152.96 25.24 145.78 25.24C145.78 25.24 139.7 26.9 139.7 31.32H139.71Z" fill="#101016"/>
<path d="M121.2 26.9C121.2 26.9 119.54 46.51 119.82 48.44C119.82 48.44 120.1 52.58 114.02 52.58C114.02 52.58 105.46 50.37 105.73 37.94C105.73 37.94 106.28 23.02 112.08 22.2C112.08 22.2 122.02 19.71 121.2 26.9Z" fill="#101016"/>
<path d="M59.6 34.63C59.6 34.63 68.16 32.97 68.16 39.33C68.16 39.33 69.26 55.9 63.46 56.18C63.46 56.18 54.9 58.94 55.73 46.24C55.73 46.24 55.18 36.3 59.6 34.64V34.63Z" fill="#101016"/>
<path d="M14.3 83.25C14.3 83.25 17.06 43.47 28.11 34.08C28.11 34.08 38.61 29.11 55.18 32.42C55.18 32.42 66.23 32.97 68.99 30.76C68.99 30.76 112.08 9.22003 125.89 15.84C125.89 15.84 130.86 18.6 133.62 20.81C133.62 20.81 140.25 24.12 145.22 23.02C145.22 23.02 166.21 15.84 175.6 21.36C175.6 21.36 185.54 26.33 186.1 32.41C186.1 32.41 189.41 55.06 184.44 62.24L201.01 66.66C201.01 66.66 210.95 27.99 191.62 13.63C191.62 13.63 177.81 -1.83997 141.35 7.00003C141.35 7.00003 129.75 -6.25997 97.71 3.69003C97.71 3.69003 70.64 14.74 62.91 15.84C62.91 15.84 24.24 7.55004 10.43 30.2C10.43 30.2 1.34001 55.02 0.130009 78.24C-0.179991 84.21 0.0300088 90.08 1.04001 95.39L5.97001 90.87L10.07 87.11L14.29 83.24L14.3 83.25Z" fill="#101016"/>
</g>
<defs>
<clipPath id="clip0_82_429">
<rect width="203.58" height="95.4" fill="white"/>
</clipPath>
</defs>
</svg>
