<svg width="243" height="311" viewBox="0 0 243 311" fill="none" xmlns="http://www.w3.org/2000/svg">
<g clip-path="url(#clip0_82_439)">
<path d="M74.31 52.6C74.31 52.6 89.23 58.12 88.12 80.77C88.12 80.77 88.67 89.06 94.75 88.5C94.75 88.5 100.83 90.16 101.38 80.21C101.38 80.21 105.8 50.93 82.6 40.99C82.6 40.99 74.31 38.78 71.55 43.75C71.55 43.75 67.68 50.38 74.31 52.59V52.6Z" fill="#101016"/>
<path d="M93.0899 114.47C93.0899 114.47 99.1699 127.18 94.7499 139.88C94.7499 139.88 92.5399 147.61 99.7199 149.27C99.7199 149.27 112.98 144.3 110.77 121.65C110.77 121.65 108.01 106.18 98.6199 106.18C98.6199 106.18 89.2299 107.28 93.0999 114.47H93.0899Z" fill="#101016"/>
<path d="M97.51 170.27C97.51 170.27 101.93 188.5 96.96 201.76C96.96 201.76 96.41 211.7 101.38 212.26C101.38 212.26 106.78 212.62 109.67 203.97C110.22 202.31 116.3 177.45 109.12 165.85C109.12 165.85 106.91 161.98 101.39 162.54C101.39 162.54 96.42 165.85 97.52 170.27H97.51Z" fill="#101016"/>
<path d="M96.41 231.04C96.41 231.04 88.68 229.94 88.12 234.91C88.12 234.91 85.36 255.9 71.55 265.85C71.55 265.85 64.92 271.93 71 275.79C71 275.79 79.29 279.66 83.15 274.69C83.15 274.69 98.07 264.75 100.83 242.1C100.83 242.1 102.49 232.71 96.41 231.05V231.04Z" fill="#101016"/>
<path d="M145.57 164.19C145.57 164.19 146.4 183.8 138.39 191.26C138.39 191.26 135.35 197.61 140.88 199.82C140.88 199.82 144.19 202.58 149.44 197.61C149.44 197.61 165.74 183.25 158.28 162.53C158.28 162.53 154.97 155.9 148.89 157.83C148.89 157.83 145.02 158.93 145.58 164.18L145.57 164.19Z" fill="#101016"/>
<path d="M141.71 225.79C141.71 225.79 138.95 242.36 127.62 247.61C127.62 247.61 119.61 252.86 123.75 259.21C123.75 259.21 127.89 264.18 133.42 261.42C133.42 261.42 149.99 252.03 153.31 230.76C153.31 230.76 154.97 224.96 149.44 223.03C149.44 223.03 142.81 219.99 141.71 225.79Z" fill="#101016"/>
<path d="M134.52 110.05C134.52 110.05 145.02 118.34 139.22 136.57C139.22 136.57 137.29 143.48 143.92 144.3C143.92 144.3 149.44 146.51 152.21 139.88C152.21 139.88 162.15 112.81 144.75 101.21C144.75 101.21 139.78 98.1701 136.74 102.04C136.74 102.04 132.6 107.01 134.53 110.05H134.52Z" fill="#101016"/>
<path d="M122.09 44.3099C122.09 44.3099 116.01 51.4899 122.64 56.1899C122.64 56.1899 134.24 61.7099 134.79 80.7699C134.79 80.7699 135.89 89.3299 142.52 88.2299C142.52 88.2299 149.98 87.1299 150.53 78.2899C150.53 78.2899 148.6 51.2199 130.64 44.0399C130.64 44.0399 125.39 41.2799 122.08 44.3199L122.09 44.3099Z" fill="#101016"/>
<path d="M187.01 73.32C187.01 73.32 181.21 69.73 177.62 72.49C177.62 72.49 171.54 80.5 177.07 84.92C177.07 84.92 188.95 98.73 188.12 111.44C188.12 111.44 188.67 119.73 195.85 118.9C195.85 118.9 201.37 119.45 201.93 111.44C201.93 111.44 204.14 85.2 187.01 73.32Z" fill="#101016"/>
<path d="M203.58 128.01C203.58 128.01 200.27 128.01 198.61 128.56C198.61 128.56 192.53 131.05 195.02 140.44C195.02 140.44 196.68 150.38 193.92 155.91C193.92 155.91 191.71 161.99 198.06 162.82C198.06 162.82 206.9 165.86 209.66 150.11C209.66 150.11 212.7 132.71 203.58 128.01Z" fill="#101016"/>
<path d="M207.72 181.32C207.72 181.32 201.09 179.94 199.16 187.67C199.16 187.67 191.15 215.29 181.21 223.03C181.21 223.03 175.96 228 180.11 232.15C180.11 232.15 186.74 236.85 190.33 232.98C190.33 232.98 210.22 210.05 212.43 191.82C212.43 191.82 213.81 181.6 207.73 181.32H207.72Z" fill="#101016"/>
<path d="M43.41 238.54C40.17 244.09 36.83 249.55 33.55 254.92C35.38 252.28 39.09 246.63 43.41 238.54Z" fill="#101016"/>
<path d="M65.5 124.62C65.5 128.62 63.5 132.62 64.5 136.62C65.79 140.41 66.78 144.18 67.51 147.91C67.59 139.15 67.01 130.06 65.57 120.74C65.59 122.02 65.57 123.31 65.5 124.62Z" fill="#101016"/>
<path d="M57.9001 90.3699C56.5401 86.5399 55.0101 82.6899 53.3101 78.8199C53.3601 79.0899 53.4101 79.3699 53.5001 79.6299C54.9501 83.2599 56.4601 86.8299 57.9001 90.3799V90.3699Z" fill="#101016"/>
<path d="M32.05 256.92C32.14 256.82 32.2401 256.73 32.3301 256.63C32.3301 256.63 32.4001 256.54 32.5201 256.38C32.6001 254.55 33.5 253.54 33.5 251.63C33.07 253.41 32.58 255.17 32.05 256.92Z" fill="#101016"/>
<path d="M204.46 34.77C196.56 29.79 162.69 8.98 141.34 3.8C141.34 3.8 83.9701 -8.81 18.8101 11.89C23.6901 16 27.9001 20.64 31.6101 25.63C51.3401 20.88 103.09 10.68 142.81 22.95C142.81 22.95 161.59 29.21 197.31 51.31C197.31 51.31 201.52 54.31 206.86 54.18C206.36 50.33 205.9 46.48 205.5 42.63C205.22 39.8 204.85 37.21 204.45 34.77H204.46Z" fill="#101016"/>
<path d="M237.5 215.62C237.5 213.62 238.5 210.62 238.5 208.62C238.45 208.46 238.38 208.29 238.32 208.13C238.28 208.15 238.23 208.17 238.19 208.2C238.19 208.2 230.83 213.36 225.3 219.98C225.3 219.98 168.95 280.75 114.44 289.59C114.44 289.59 69.98 298.33 14.42 289C10.13 294.06 5.29999 298.66 -0.0100098 302.69C4.59999 303.89 9.35999 304.94 14.26 305.8C14.26 305.8 83.87 319.43 136.9 301.38C136.9 301.38 211.91 266.42 242.45 227.64C242.45 227.61 242.45 227.59 242.45 227.56C241.95 223.23 239.5 219.65 237.49 215.62H237.5Z" fill="#101016"/>
</g>
<defs>
<clipPath id="clip0_82_439">
<rect width="242.47" height="310.73" fill="white"/>
</clipPath>
</defs>
</svg>
