<svg width="176" height="84" viewBox="0 0 176 84" fill="none" xmlns="http://www.w3.org/2000/svg">
<g clip-path="url(#clip0_82_424)">
<path d="M51.9301 34.8C51.9301 34.8 57.45 51.37 64.64 51.93C64.64 51.93 77.35 49.72 72.93 43.09C72.93 43.09 66.3001 37.57 65.7501 33.15C65.7501 33.15 65.2 27.63 57.46 28.18C57.46 28.18 49.73 30.39 51.94 34.81L51.9301 34.8Z" fill="#101016"/>
<path d="M95.5699 29.28C95.5699 29.28 97.2299 37.01 99.9899 39.22C99.9899 39.22 103.86 43.64 99.4399 46.95C99.4399 46.95 92.2599 53.03 85.6299 39.22C85.6299 39.22 82.8699 28.17 86.7299 26.51C86.7299 26.51 94.4599 21.54 95.5699 29.27V29.28Z" fill="#101016"/>
<path d="M135.9 19.34C135.9 19.34 136.45 29.84 137.56 33.15C137.56 33.15 140.32 43.09 131.48 42.54C131.48 42.54 122.09 44.2 122.64 26.52C122.64 26.52 122.64 17.13 128.16 15.47C128.16 15.47 135.89 13.26 135.89 19.34H135.9Z" fill="#101016"/>
<path d="M16.02 30.94C16.02 30.94 30.38 61.88 46.4 66.85C46.4 66.85 63.53 74.03 74.02 65.75C74.02 65.75 88.38 56.91 98.88 59.12C98.88 59.12 119.87 64.64 129.82 60.22C129.82 60.22 146.39 54.14 150.81 49.72C150.81 49.72 166.83 32.04 157.99 9.94L170.14 0C170.14 0 187.82 34.25 160.75 62.43C160.75 62.43 130.37 83.97 99.98 74.03C99.98 74.03 91.14 74.03 86.17 77.34C86.17 77.34 63.52 90.05 38.66 79.55C38.66 79.55 3.85999 61.32 -0.0100098 27.62L16.01 30.93L16.02 30.94Z" fill="#101016"/>
</g>
<defs>
<clipPath id="clip0_82_424">
<rect width="175.82" height="83.7" fill="white"/>
</clipPath>
</defs>
</svg>
