<svg width="231" height="291" viewBox="0 0 231 291" fill="none" xmlns="http://www.w3.org/2000/svg">
<g clip-path="url(#clip0_82_458)">
<path d="M202.447 226.65C213.537 207.61 228.298 175.02 228.701 136.03C227.906 132.3 226.828 128.53 225.422 124.74C224.333 120.74 226.512 116.74 226.512 112.74C226.599 111.43 226.61 110.14 226.588 108.86C224.932 98.97 222.23 88.8199 218.232 78.4899C216.664 74.9399 215.019 71.3699 213.439 67.7399C213.341 67.4799 213.287 67.21 213.232 66.93C209.038 58.14 203.896 49.26 197.6 40.34C197.6 40.34 191.586 35.37 185.562 39.79C185.562 39.79 180.747 43.1 184.364 48.63C184.364 48.63 251.164 130.39 178.949 235.35C178.949 235.35 172.326 241.98 177.141 245.85C177.141 245.85 183.558 251.2 190.072 245.04C190.66 243.29 191.194 241.53 191.652 239.75C191.652 241.66 190.671 242.67 190.584 244.5C190.802 244.23 191.172 243.74 191.706 243.05C195.279 237.68 198.918 232.22 202.447 226.67V226.65Z" fill="#101016"/>
<path d="M175.687 0C158.344 4.49943 140.487 10.7541 122.915 19.3698C122.915 19.3698 68.243 45.618 32.8684 97.7935C32.8684 97.7935 16.791 133.557 18.7994 148L36.4812 139.473C36.4812 139.473 50.5612 50.2154 180.795 14.122C180.795 14.122 184.037 13.3468 189.658 12.242C185.609 7.79604 181.014 3.66191 175.687 0Z" fill="#101016"/>
<path d="M148.262 280.391C148.07 280.352 147.884 280.314 147.691 280.275C147.691 280.275 117.003 271.706 98.8257 252L87.2566 257.995C87.2566 257.995 107.581 281.128 139.007 291C142.404 287.882 145.506 284.307 148.255 280.383L148.262 280.391Z" fill="#101016"/>
<path d="M49.7492 190.97C49.7492 190.97 61.1877 214.72 66.6019 216.93L55.1634 224.66C55.1634 224.66 35.304 203.12 35.9032 193.72L49.7492 190.96V190.97Z" fill="#101016"/>
<path fill-rule="evenodd" clip-rule="evenodd" d="M55.1638 134.07C128.991 150.64 135.811 169.79 135.811 169.79H135.821C149.46 199.99 139.024 222.09 139.024 222.09C124.579 258.55 98.0962 264.81 98.0962 264.81C89.2723 268.86 80.8514 264.44 80.8514 264.44C69.2168 261.13 50.7627 239.4 50.7627 239.4C43.1371 227.98 55.1747 217.3 55.1747 217.3C59.5758 212.88 74.8271 206.62 74.8271 206.62C79.2391 204.78 74.424 201.83 74.424 201.83C65.9922 199.26 47.5382 198.52 47.5382 198.52C41.5248 198.52 27.8858 195.57 27.8858 195.57C9.43168 191.52 11.0331 155.06 11.0331 155.06C13.0375 142.54 20.6632 137.38 20.6632 137.38C30.6855 127.07 55.1638 134.07 55.1638 134.07ZM24.6826 178.63C17.46 151.01 30.696 144.38 30.696 144.38H30.7069C37.5264 139.96 71.6348 149.9 71.6348 149.9C118.173 162.06 123.794 174.21 123.794 174.21C135.429 190.41 128.609 215.09 128.609 215.09C118.576 246.03 92.8995 254.13 92.8995 254.13C86.4831 257.08 77.6482 249.71 77.6482 249.71C53.1699 233.14 64.4123 225.77 64.4123 225.77C67.212 222.46 82.4633 213.62 82.4633 213.62C97.7037 205.15 86.8752 194.47 86.8752 194.47C81.6571 187.84 33.5175 185.63 33.5175 185.63C26.6871 185.26 24.6826 178.63 24.6826 178.63Z" fill="#101016"/>
<path fill-rule="evenodd" clip-rule="evenodd" d="M145.44 50.1C145.44 50.1 196.39 46.05 195.192 97.24C195.192 97.24 200.007 155.43 130.592 153.59C130.592 153.59 76.4279 149.91 89.2717 91.72C89.2717 91.72 97.3004 53.78 145.44 50.1ZM161.89 62.98C161.89 62.98 195.987 70.35 179.941 119.7C179.941 119.7 169.516 145.11 134.209 141.43C134.209 141.43 110.537 140.69 100.906 118.23C100.906 118.23 94.8931 86.18 115.352 72.19C115.352 72.19 140.222 53.4 161.89 62.98Z" fill="#101016"/>
<path d="M161.487 90.24C159.079 71.09 135.81 76.61 135.81 76.61C113.739 81.77 114.949 100.92 114.949 100.92C114.556 121.91 145.037 117.12 145.037 117.12C166.705 111.96 161.487 90.24 161.487 90.24Z" fill="#101016"/>
</g>
<defs>
<clipPath id="clip0_82_458">
<rect width="219.39" height="290.8" fill="white" transform="translate(11)"/>
</clipPath>
</defs>
</svg>
